<svg xmlns="http://www.w3.org/2000/svg" version="1.1" xlink="http://www.w3.org/1999/xlink" xmlns:svgjs="http://svgjs.com/svgjs" width="199.3758662861802" height="147"><defs id="SvgjsDefs208459"/><g id="SvgjsG208460" transform="scale(0.5159705159705161)" opacity="1"><g id="SvgjsG208461" class="874k8uOri" transform="translate(74.66865470852017, 0) scale(0.8855887471920746)" light-content="false" non-strokable="false" fill="#0ea548"><circle cx="133.8" cy="133.8" r="133.8"/></g><g id="SvgjsG208462" class="pdKkb52J9z" transform="translate(122.61226613061291, 47.94471441177504) scale(2.2059793645321153)" light-content="true" non-strokable="false" fill="#ffffff"><path d="M56.239 9.105l-6.821-6.667a2.086 2.086 0 0 0-1.458-.594H9.219a2.084 2.084 0 0 0-2.085 2.085v56.142c0 1.152.933 2.085 2.085 2.085h45.563a2.085 2.085 0 0 0 2.085-2.085V10.596a2.092 2.092 0 0 0-.628-1.491zM11.304 57.986V6.014h34.572v4.582c0 1.152.934 2.085 2.085 2.085h4.736v45.304H11.304z"/><path d="M44.416 41.357H19.414a1.77 1.77 0 0 1 0-3.54h25.002a1.77 1.77 0 0 1 0 3.54zm.085 6.702H19.499a1.77 1.77 0 0 1 0-3.54h25.002a1.77 1.77 0 0 1 0 3.54zm.085 6.702H19.584a1.77 1.77 0 0 1 0-3.54h25.002a1.77 1.77 0 0 1 0 3.54z"/><circle cx="28.963" cy="13.435" r="4.754"/><path d="M22.543 33.818h12.69c1.021 0 1.879-.811 1.888-1.833V22.97c0-.876-.416-1.707-1.135-2.207-.589-.41-2.737-.741-4.057-.741l-2.125 5.164-.354-2.976.786-1.183a.683.683 0 0 0-.109-.823.709.709 0 0 0-.505-.198h-1.469a.709.709 0 0 0-.505.198.682.682 0 0 0-.109.823l.785 1.183-.352 2.978-2.088-5.078c-1.17 0-3.263.235-3.849.552-.861.466-1.38 1.384-1.38 2.363v8.959c.009 1.022.866 1.834 1.888 1.834z"/></g><g id="SvgjsG208463" class="text" transform="translate(193.2, 284.54865470852013) scale(1)" light-content="false" fill="#030303"><path d="M-176.72 -6.69C-177 -6.5 -177.46 -6.32 -178.1 -6.13C-178.74 -5.95 -179.42 -5.85 -180.14 -5.85C-181.67 -5.85 -183.15 -6.36 -184.56 -7.39C-185.28 -7.92 -185.88 -8.65 -186.34 -9.58C-186.81 -10.51 -187.04 -11.56 -187.04 -12.74C-187.04 -13.91 -186.81 -14.96 -186.34 -15.89C-185.88 -16.82 -185.3 -17.54 -184.6 -18.05C-183.14 -19.09 -181.65 -19.62 -180.14 -19.62C-178.51 -19.62 -177.21 -19.22 -176.24 -18.43C-175.47 -17.92 -174.88 -17.67 -174.46 -17.67C-173.74 -17.67 -172.93 -18.29 -172.02 -19.55C-171.53 -20.22 -171.29 -20.87 -171.29 -21.48C-171.29 -22.1 -171.59 -22.65 -172.19 -23.14C-172.43 -23.3 -172.75 -23.51 -173.17 -23.76L-174.01 -24.25C-174.59 -24.6 -175.44 -24.94 -176.57 -25.28C-177.69 -25.62 -178.8 -25.78 -179.89 -25.78C-182.19 -25.78 -184.48 -25.16 -186.76 -23.9C-187.97 -23.25 -189.04 -22.44 -189.98 -21.48C-190.92 -20.52 -191.69 -19.3 -192.3 -17.82C-192.9 -16.35 -193.2 -14.7 -193.2 -12.89C-193.2 -11.08 -192.9 -9.4 -192.28 -7.86C-191.67 -6.31 -190.88 -5.05 -189.93 -4.06C-188.98 -3.07 -187.9 -2.24 -186.71 -1.55C-185.51 -0.87 -184.35 -0.38 -183.22 -0.09C-182.1 0.2 -180.98 0.35 -179.88 0.35C-178.77 0.35 -177.63 0.16 -176.45 -0.21C-175.26 -0.58 -174.48 -0.88 -174.09 -1.11C-173.71 -1.35 -173.31 -1.59 -172.89 -1.85C-172.47 -2.1 -172.11 -2.39 -171.79 -2.72C-171.48 -3.04 -171.32 -3.45 -171.32 -3.94C-171.32 -4.43 -171.58 -5.08 -172.09 -5.89C-172.93 -7.19 -173.7 -7.84 -174.42 -7.84C-174.75 -7.84 -175.31 -7.61 -176.1 -7.14Z M-142.23 -25.16C-143 -25.55 -143.68 -25.75 -144.29 -25.75C-144.89 -25.75 -145.4 -25.44 -145.82 -24.81C-145.96 -24.55 -146.12 -24.2 -146.31 -23.76L-153.27 -8.5C-153.37 -8.69 -153.78 -9.58 -154.51 -11.17C-155.24 -12.76 -156.02 -14.45 -156.85 -16.24C-157.67 -18.03 -158.44 -19.72 -159.16 -21.31C-159.88 -22.9 -160.33 -23.86 -160.5 -24.2C-160.68 -24.54 -160.87 -24.84 -161.08 -25.12C-161.27 -25.35 -161.46 -25.52 -161.67 -25.61C-161.88 -25.7 -162.19 -25.75 -162.6 -25.75C-163 -25.75 -163.59 -25.55 -164.35 -25.16C-165.73 -24.48 -166.41 -23.74 -166.41 -22.93C-166.41 -22.56 -166.24 -22 -165.89 -21.25L-156.27 -1.74C-156.02 -1.23 -155.63 -0.82 -155.1 -0.51C-154.58 -0.19 -154.03 -0.03 -153.45 -0.03L-153.1 -0.03C-152.54 -0.03 -152 -0.19 -151.48 -0.51C-150.96 -0.82 -150.57 -1.23 -150.31 -1.74L-140.7 -21.25C-140.35 -22 -140.17 -22.56 -140.17 -22.93C-140.17 -23.74 -140.86 -24.48 -142.23 -25.16Z M-122.09 -3.59L-121.78 -3.21C-121.29 -2.51 -120.43 -1.79 -119.2 -1.05C-118.59 -0.65 -117.8 -0.32 -116.83 -0.05C-115.85 0.21 -114.82 0.35 -113.73 0.35C-111.59 0.35 -109.58 -0.27 -107.7 -1.5C-106.72 -2.13 -105.93 -3.01 -105.33 -4.16C-104.73 -5.31 -104.42 -6.64 -104.42 -8.15C-104.42 -9.66 -104.72 -10.93 -105.31 -11.97C-105.91 -13 -106.64 -13.73 -107.53 -14.15C-108.41 -14.56 -109.37 -14.92 -110.42 -15.21C-111.46 -15.5 -112.43 -15.71 -113.31 -15.85C-114.19 -15.99 -114.93 -16.26 -115.52 -16.65C-116.11 -17.05 -116.41 -17.57 -116.41 -18.21C-116.41 -18.84 -116.16 -19.34 -115.66 -19.7C-115.16 -20.06 -114.53 -20.24 -113.78 -20.24C-113.03 -20.24 -112.4 -20.09 -111.92 -19.79C-111.75 -19.67 -111.57 -19.52 -111.38 -19.34C-111.18 -19.15 -111.04 -19.04 -110.98 -18.99C-110.26 -18.52 -109.65 -18.29 -109.16 -18.29C-108.33 -18.29 -107.51 -18.87 -106.72 -20.03C-106.17 -20.85 -105.89 -21.49 -105.89 -21.95C-105.89 -22.42 -106.25 -22.98 -106.97 -23.66L-107.84 -24.32C-108.28 -24.69 -109.08 -25.06 -110.23 -25.42C-111.38 -25.78 -112.65 -25.96 -114.04 -25.96C-116.67 -25.96 -118.74 -25.2 -120.26 -23.68C-121.78 -22.15 -122.54 -20.37 -122.54 -18.33C-122.54 -16.84 -122.25 -15.57 -121.65 -14.51C-121.06 -13.46 -120.32 -12.68 -119.44 -12.2C-118.56 -11.71 -117.61 -11.28 -116.58 -10.92C-115.56 -10.56 -114.61 -10.3 -113.73 -10.14C-112.85 -9.98 -112.11 -9.72 -111.52 -9.36C-110.92 -9 -110.63 -8.55 -110.63 -8.01C-110.63 -6.25 -111.71 -5.37 -113.87 -5.37C-114.38 -5.37 -114.94 -5.55 -115.54 -5.91C-116.14 -6.27 -116.61 -6.64 -116.93 -7.04C-118.09 -8.2 -119 -8.78 -119.65 -8.78C-120.3 -8.78 -120.92 -8.5 -121.5 -7.94C-122.5 -6.97 -123 -6.18 -123 -5.59C-123 -5 -122.69 -4.33 -122.09 -3.59Z M-92.51 -6.17L-92.51 -9.69L-85.68 -9.69C-84.87 -9.69 -84.26 -9.76 -83.87 -9.9C-82.98 -10.17 -82.54 -11.13 -82.54 -12.75C-82.54 -14.24 -82.86 -15.15 -83.48 -15.47C-83.83 -15.66 -84.14 -15.77 -84.41 -15.8C-84.67 -15.84 -85.08 -15.85 -85.61 -15.85L-92.51 -15.85L-92.51 -19.37L-81.81 -19.37C-81 -19.37 -80.39 -19.44 -80 -19.58C-79.14 -19.86 -78.71 -20.81 -78.71 -22.44C-78.71 -23.93 -79.02 -24.83 -79.65 -25.16C-80 -25.34 -80.31 -25.45 -80.57 -25.49C-80.84 -25.52 -81.24 -25.54 -81.78 -25.54L-95.5 -25.54C-96.74 -25.54 -97.57 -25.33 -98.01 -24.9C-98.45 -24.47 -98.68 -23.66 -98.68 -22.47L-98.68 -3.1C-98.68 -2.29 -98.61 -1.7 -98.47 -1.32C-98.19 -0.44 -97.24 0 -95.61 0L-81.81 0C-81 0 -80.39 -0.07 -80 -0.21C-79.14 -0.49 -78.71 -1.44 -78.71 -3.07C-78.71 -4.55 -79.02 -5.46 -79.65 -5.78C-80 -5.97 -80.31 -6.08 -80.57 -6.11C-80.84 -6.15 -81.24 -6.17 -81.78 -6.17Z M-58.22 -23.73C-58.83 -24.94 -59.76 -25.54 -61.01 -25.54C-61.59 -25.54 -62.14 -25.38 -62.67 -25.05C-63.19 -24.73 -63.58 -24.3 -63.83 -23.76L-73.24 -4.29C-73.63 -3.5 -73.83 -2.9 -73.83 -2.51C-73.83 -1.67 -73.16 -0.93 -71.81 -0.28C-71.02 0.12 -70.4 0.31 -69.95 0.31C-69.49 0.31 -69.12 0.2 -68.83 -0.02C-68.54 -0.24 -68.33 -0.45 -68.21 -0.66C-68.08 -0.87 -67.9 -1.21 -67.67 -1.67L-65.85 -5.44L-56.2 -5.44L-54.39 -1.67C-54.16 -1.21 -53.98 -0.86 -53.85 -0.63C-53.72 -0.39 -53.51 -0.17 -53.22 0.03C-52.93 0.24 -52.56 0.35 -52.11 0.35C-51.65 0.35 -51.03 0.15 -50.24 -0.24C-48.9 -0.92 -48.22 -1.67 -48.22 -2.51C-48.22 -2.9 -48.42 -3.5 -48.82 -4.29ZM-61.05 -15.37L-58.71 -10.59L-63.34 -10.59Z M-23.28 -4.32C-24.34 -6.74 -25.13 -8.56 -25.64 -9.79C-23.9 -11.49 -23.03 -13.65 -23.03 -16.27C-23.03 -17.78 -23.33 -19.15 -23.94 -20.38C-24.54 -21.61 -25.31 -22.59 -26.24 -23.31C-28.16 -24.8 -30.15 -25.54 -32.19 -25.54L-39.72 -25.54C-41.21 -25.54 -42.11 -25.23 -42.44 -24.6C-42.62 -24.25 -42.73 -23.94 -42.77 -23.68C-42.8 -23.41 -42.82 -23.01 -42.82 -22.47L-42.82 -3.14C-42.82 -2.32 -42.75 -1.72 -42.61 -1.32C-42.33 -0.46 -41.38 -0.03 -39.76 -0.03C-38.27 -0.03 -37.36 -0.35 -37.04 -0.98C-36.85 -1.32 -36.74 -1.63 -36.71 -1.9C-36.67 -2.17 -36.65 -2.57 -36.65 -3.1L-36.65 -7.04L-32.26 -7.04L-31.18 -7.11C-29.6 -3.34 -28.7 -1.24 -28.47 -0.8C-28.33 -0.57 -28.11 -0.34 -27.82 -0.12C-27.53 0.1 -27.16 0.21 -26.71 0.21C-26.25 0.21 -25.66 0.05 -24.91 -0.28C-23.47 -0.88 -22.75 -1.63 -22.75 -2.51C-22.75 -2.88 -22.93 -3.48 -23.28 -4.32ZM-36.65 -13.21L-36.65 -19.37L-32.26 -19.37C-31.54 -19.37 -30.85 -19.11 -30.17 -18.59C-29.5 -18.07 -29.16 -17.29 -29.16 -16.27C-29.16 -15.25 -29.5 -14.48 -30.17 -13.97C-30.85 -13.46 -31.52 -13.21 -32.19 -13.21Z M-1.74 -6.69C-2.02 -6.5 -2.48 -6.32 -3.12 -6.13C-3.76 -5.95 -4.44 -5.85 -5.16 -5.85C-6.69 -5.85 -8.16 -6.36 -9.58 -7.39C-10.3 -7.92 -10.89 -8.65 -11.36 -9.58C-11.82 -10.51 -12.06 -11.56 -12.06 -12.74C-12.06 -13.91 -11.82 -14.96 -11.36 -15.89C-10.89 -16.82 -10.31 -17.54 -9.62 -18.05C-8.15 -19.09 -6.67 -19.62 -5.16 -19.62C-3.53 -19.62 -2.23 -19.22 -1.25 -18.43C-0.49 -17.92 0.1 -17.67 0.52 -17.67C1.24 -17.67 2.06 -18.29 2.96 -19.55C3.45 -20.22 3.69 -20.87 3.69 -21.48C3.69 -22.1 3.39 -22.65 2.79 -23.14C2.56 -23.3 2.23 -23.51 1.81 -23.76L0.98 -24.25C0.39 -24.6 -0.46 -24.94 -1.59 -25.28C-2.71 -25.62 -3.82 -25.78 -4.91 -25.78C-7.21 -25.78 -9.5 -25.16 -11.78 -23.9C-12.98 -23.25 -14.06 -22.44 -15 -21.48C-15.94 -20.52 -16.71 -19.3 -17.32 -17.82C-17.92 -16.35 -18.22 -14.7 -18.22 -12.89C-18.22 -11.08 -17.92 -9.4 -17.3 -7.86C-16.68 -6.31 -15.9 -5.05 -14.95 -4.06C-14 -3.07 -12.92 -2.24 -11.72 -1.55C-10.53 -0.87 -9.37 -0.38 -8.24 -0.09C-7.11 0.2 -6 0.35 -4.9 0.35C-3.79 0.35 -2.65 0.16 -1.46 -0.21C-0.28 -0.58 0.51 -0.88 0.89 -1.11C1.27 -1.35 1.67 -1.59 2.09 -1.85C2.51 -2.1 2.87 -2.39 3.19 -2.72C3.5 -3.04 3.66 -3.45 3.66 -3.94C3.66 -4.43 3.4 -5.08 2.89 -5.89C2.06 -7.19 1.28 -7.84 0.56 -7.84C0.23 -7.84 -0.33 -7.61 -1.11 -7.14Z M26.17 -25.33C25.73 -25.19 25.41 -24.95 25.23 -24.6C25.04 -24.25 24.93 -23.94 24.9 -23.68C24.86 -23.41 24.84 -23.01 24.84 -22.47L24.84 -15.33L15.61 -15.33L15.61 -22.44C15.61 -23.25 15.55 -23.86 15.44 -24.25C15.13 -25.11 14.17 -25.54 12.54 -25.54C11.06 -25.54 10.15 -25.23 9.83 -24.6C9.64 -24.25 9.53 -23.94 9.49 -23.68C9.46 -23.41 9.44 -23.01 9.44 -22.47L9.44 -3.14C9.44 -2.32 9.51 -1.72 9.65 -1.32C9.93 -0.46 10.88 -0.03 12.51 -0.03C14 -0.03 14.9 -0.35 15.23 -0.98C15.41 -1.32 15.52 -1.63 15.56 -1.9C15.59 -2.17 15.61 -2.57 15.61 -3.1L15.61 -10.21L24.84 -10.21L24.84 -3.14C24.84 -2.32 24.91 -1.72 25.05 -1.32C25.33 -0.46 26.28 -0.03 27.91 -0.03C29.4 -0.03 30.3 -0.35 30.63 -0.98C30.81 -1.32 30.92 -1.63 30.96 -1.9C30.99 -2.17 31.01 -2.57 31.01 -3.1L31.01 -22.44C31.01 -23.25 30.95 -23.86 30.84 -24.25C30.72 -24.55 30.56 -24.79 30.35 -24.95C30.14 -25.11 29.84 -25.25 29.44 -25.37C29.05 -25.48 28.51 -25.54 27.84 -25.54C27.17 -25.54 26.61 -25.47 26.17 -25.33Z M55.75 -6.17L55.75 -9.69L62.58 -9.69C63.39 -9.69 64 -9.76 64.39 -9.9C65.27 -10.17 65.71 -11.13 65.71 -12.75C65.71 -14.24 65.4 -15.15 64.77 -15.47C64.42 -15.66 64.12 -15.77 63.85 -15.8C63.58 -15.84 63.18 -15.85 62.65 -15.85L55.75 -15.85L55.75 -19.37L66.45 -19.37C67.26 -19.37 67.86 -19.44 68.26 -19.58C69.12 -19.86 69.55 -20.81 69.55 -22.44C69.55 -23.93 69.23 -24.83 68.61 -25.16C68.26 -25.34 67.95 -25.45 67.68 -25.49C67.42 -25.52 67.01 -25.54 66.48 -25.54L52.75 -25.54C51.52 -25.54 50.69 -25.33 50.24 -24.9C49.8 -24.47 49.58 -23.66 49.58 -22.47L49.58 -3.1C49.58 -2.29 49.65 -1.7 49.79 -1.32C50.07 -0.44 51.02 0 52.65 0L66.45 0C67.26 0 67.86 -0.07 68.26 -0.21C69.12 -0.49 69.55 -1.44 69.55 -3.07C69.55 -4.55 69.23 -5.46 68.61 -5.78C68.26 -5.97 67.95 -6.08 67.68 -6.11C67.42 -6.15 67.01 -6.17 66.48 -6.17Z M92.79 -25.3C92.35 -25.16 92.01 -24.88 91.79 -24.48C91.57 -24.07 91.46 -23.43 91.46 -22.54L91.46 -10.77C89.81 -12.9 86.54 -17.31 81.64 -23.97C81.2 -24.51 80.93 -24.81 80.84 -24.88C80.67 -25.04 80.39 -25.19 79.98 -25.31C79.58 -25.44 79.02 -25.51 78.33 -25.51C77.63 -25.51 77.06 -25.44 76.62 -25.3C76.18 -25.16 75.85 -24.88 75.63 -24.48C75.41 -24.07 75.3 -23.43 75.3 -22.54L75.3 -3.1C75.3 -2.57 75.31 -2.16 75.35 -1.88C75.38 -1.6 75.49 -1.29 75.68 -0.94C76 -0.31 76.89 0 78.33 0C79.81 0 80.72 -0.31 81.04 -0.94C81.23 -1.29 81.34 -1.59 81.38 -1.85C81.41 -2.1 81.43 -2.51 81.43 -3.07L81.43 -14.53C83.08 -12.39 86.52 -7.84 91.74 -0.87C91.97 -0.57 92.26 -0.35 92.61 -0.21C92.96 -0.07 93.59 0 94.49 0C95.98 0 96.89 -0.31 97.21 -0.94C97.4 -1.29 97.51 -1.59 97.54 -1.85C97.58 -2.1 97.6 -2.51 97.6 -3.07L97.6 -22.4C97.6 -23.22 97.53 -23.81 97.39 -24.18C97.29 -24.51 97.15 -24.75 96.95 -24.91C96.75 -25.08 96.45 -25.21 96.04 -25.33C95.64 -25.45 95.1 -25.51 94.44 -25.51C93.78 -25.51 93.23 -25.44 92.79 -25.3Z M117.18 -15.4C116.48 -15.4 115.92 -15.3 115.5 -15.09C115.23 -14.95 115.03 -14.69 114.93 -14.32C114.83 -13.95 114.77 -13.46 114.77 -12.84C114.77 -12.22 114.82 -11.74 114.91 -11.38C115.01 -11.02 115.2 -10.74 115.5 -10.56C115.81 -10.37 116.32 -10.28 117.04 -10.28L119.79 -10.28L119.79 -6.48C118.77 -6.06 117.62 -5.85 116.34 -5.85C114.58 -5.85 113 -6.56 111.6 -7.96C110.21 -9.37 109.51 -11.07 109.51 -13.08C109.51 -15.09 110.2 -16.72 111.57 -17.96C112.94 -19.2 114.51 -19.83 116.27 -19.83C117.62 -19.83 118.78 -19.51 119.76 -18.87C120.73 -18.23 121.44 -17.91 121.88 -17.91C122.62 -17.91 123.45 -18.52 124.35 -19.76C124.89 -20.5 125.16 -21.16 125.16 -21.72C125.16 -22.29 124.84 -22.81 124.22 -23.28C121.78 -25.09 119.19 -25.99 116.45 -25.99C112.91 -25.99 109.85 -24.76 107.25 -22.28C104.65 -19.81 103.34 -16.72 103.34 -13.03C103.34 -9.34 104.62 -6.18 107.18 -3.57C109.73 -0.96 112.74 0.35 116.2 0.35C120.1 0.35 123.03 -0.66 124.98 -2.68C125.63 -3.36 125.96 -4.07 125.96 -4.81L125.96 -12.47C125.96 -13.33 125.84 -13.98 125.61 -14.43C125.33 -15.03 124.56 -15.35 123.31 -15.4Z M132.23 -22.47L132.23 -3.1C132.23 -2.29 132.3 -1.7 132.44 -1.32C132.72 -0.44 133.67 0 135.3 0C136.78 0 137.69 -0.31 138.01 -0.94C138.2 -1.29 138.31 -1.59 138.34 -1.85C138.38 -2.1 138.4 -2.51 138.4 -3.07L138.4 -22.44C138.4 -23.25 138.34 -23.86 138.22 -24.25C137.92 -25.11 136.96 -25.54 135.33 -25.54C133.84 -25.54 132.94 -25.23 132.61 -24.6C132.43 -24.25 132.32 -23.94 132.28 -23.68C132.25 -23.41 132.23 -23.01 132.23 -22.47Z M162.16 -25.3C161.72 -25.16 161.39 -24.88 161.17 -24.48C160.95 -24.07 160.84 -23.43 160.84 -22.54L160.84 -10.77C159.19 -12.9 155.91 -17.31 151.01 -23.97C150.57 -24.51 150.3 -24.81 150.21 -24.88C150.05 -25.04 149.76 -25.19 149.35 -25.31C148.95 -25.44 148.4 -25.51 147.7 -25.51C147 -25.51 146.43 -25.44 145.99 -25.3C145.55 -25.16 145.22 -24.88 145 -24.48C144.78 -24.07 144.67 -23.43 144.67 -22.54L144.67 -3.1C144.67 -2.57 144.69 -2.16 144.72 -1.88C144.76 -1.6 144.87 -1.29 145.05 -0.94C145.38 -0.31 146.26 0 147.7 0C149.19 0 150.09 -0.31 150.42 -0.94C150.6 -1.29 150.71 -1.59 150.75 -1.85C150.78 -2.1 150.8 -2.51 150.8 -3.07L150.8 -14.53C152.45 -12.39 155.89 -7.84 161.11 -0.87C161.35 -0.57 161.64 -0.35 161.99 -0.21C162.33 -0.07 162.96 0 163.87 0C165.35 0 166.26 -0.31 166.58 -0.94C166.77 -1.29 166.88 -1.59 166.92 -1.85C166.95 -2.1 166.97 -2.51 166.97 -3.07L166.97 -22.4C166.97 -23.22 166.9 -23.81 166.76 -24.18C166.67 -24.51 166.52 -24.75 166.32 -24.91C166.13 -25.08 165.82 -25.21 165.42 -25.33C165.01 -25.45 164.48 -25.51 163.81 -25.51C163.15 -25.51 162.6 -25.44 162.16 -25.3Z M179.41 -6.17L179.41 -9.69L186.24 -9.69C187.05 -9.69 187.65 -9.76 188.05 -9.9C188.93 -10.17 189.37 -11.13 189.37 -12.75C189.37 -14.24 189.06 -15.15 188.43 -15.47C188.08 -15.66 187.77 -15.77 187.51 -15.8C187.24 -15.84 186.84 -15.85 186.31 -15.85L179.41 -15.85L179.41 -19.37L190.1 -19.37C190.92 -19.37 191.52 -19.44 191.92 -19.58C192.77 -19.86 193.2 -20.81 193.2 -22.44C193.2 -23.93 192.89 -24.83 192.26 -25.16C191.92 -25.34 191.61 -25.45 191.34 -25.49C191.07 -25.52 190.67 -25.54 190.14 -25.54L176.41 -25.54C175.18 -25.54 174.34 -25.33 173.9 -24.9C173.46 -24.47 173.24 -23.66 173.24 -22.47L173.24 -3.1C173.24 -2.29 173.31 -1.7 173.45 -1.32C173.73 -0.44 174.68 0 176.31 0L190.1 0C190.92 0 191.52 -0.07 191.92 -0.21C192.77 -0.49 193.2 -1.44 193.2 -3.07C193.2 -4.55 192.89 -5.46 192.26 -5.78C191.92 -5.97 191.61 -6.08 191.34 -6.11C191.07 -6.15 190.67 -6.17 190.14 -6.17Z"/></g></g></svg>